<?xml version="1.0" encoding="utf-8"?>
<svg xmlns="http://www.w3.org/2000/svg" viewBox="38.0225 95.5191 424.18 290.964" width="424.18px" height="290.964px" xmlns:bx="https://boxy-svg.com"><defs><style>@import url(https://fonts.googleapis.com/css2?family=Roboto%3Aital%2Cwght%400%2C100..900%3B1%2C100..900&amp;display=swap);</style></defs><g transform="matrix(1, 0, 0, 1, -2.1137490272521973, 3.929448127746568)" id="object-2"><g transform="matrix(1, 0, 0, 1, -1.789791, -11.398348)" id="object-1"><rect style="stroke-linejoin: round; fill: rgb(255, 255, 255); stroke: rgb(199, 199, 199);" x="41.926" y="102.988" width="424.18" height="290.964" rx="12" ry="12" id="object-3"/><g id="object-0" transform="matrix(0.113399, 0, 0, 0.114883, 44.712742, 102.796478)" style=""><ellipse style="fill: rgb(255, 232, 214);" cx="154.298" cy="161.157" rx="90" ry="90"/><path d="M 180.89 180.32 C 180.63 182.96 180.5 185.85 180.5 188.66 C 180.5 191.92 180.68 195.08 181.03 197.65 C 181.22 198.43 181.9 198.76 182.55 198.76 C 183.25 198.76 183.91 198.38 183.91 197.74 C 183.91 196.75 183.77 195.35 183.77 194.22 C 183.77 194.08 183.77 193.95 183.77 193.82 C 185.13 193.18 189.84 189.81 189.84 183.86 C 189.84 181.79 189.05 180.12 187.42 179.77 C 187.21 179.72 187 179.7 186.79 179.7 C 185.59 179.7 184.54 180.42 184.01 181.38 C 184 180.98 184 180.46 184 180.06 C 184 179.47 183.25 179.08 182.49 179.08 C 181.76 179.08 181.01 179.44 180.89 180.32 Z M 186.73 181.17 C 187.09 181.28 187.25 181.82 187.25 182.6 C 187.25 185.28 185.41 190.81 183.64 191.97 C 183.62 191.67 183.6 191.18 183.6 190.58 C 183.6 188.95 183.73 186.48 184.35 184.49 C 185.01 182.38 186.12 181.16 186.65 181.16 C 186.68 181.16 186.7 181.16 186.73 181.17 Z M 193.05 188.21 C 193.16 187.42 193.63 186.9 193.86 186.9 C 194.28 186.9 194.53 187.67 194.59 189.49 C 194.6 189.88 194.62 190.25 194.62 190.47 C 194.62 190.61 194.61 190.7 194.6 190.7 C 194.52 190.7 194.42 190.69 194.32 190.69 C 193.21 190.69 190.94 191.04 190.94 193.09 C 190.94 193.17 190.95 193.24 190.95 193.32 C 191.06 194.75 192.49 194.93 193.66 195.02 L 194.56 195.1 L 194.57 196 C 194.57 196.25 194.57 196.44 194.58 196.59 C 194.62 197.24 195.61 197.51 196.34 197.53 C 197.44 197.49 197.67 197.27 197.71 196.52 L 197.79 194.97 C 197.84 193.98 197.86 193.15 197.86 192.44 C 197.86 191.03 197.78 190.09 197.71 189.37 C 197.52 187.19 196.74 185.42 194.31 185.42 C 194.18 185.42 194.04 185.42 193.9 185.43 C 192.71 185.52 191.27 186.5 191.27 188 C 191.27 188.51 191.69 188.73 192.21 188.73 C 192.64 188.73 193.05 188.55 193.05 188.21 Z M 194.28 191.92 C 194.39 191.92 194.48 191.93 194.51 191.96 C 194.55 191.99 194.57 192.1 194.57 192.34 C 194.57 192.48 194.56 192.67 194.55 192.92 L 194.51 193.81 C 194.39 193.81 194.27 193.81 194.15 193.81 C 193.55 193.81 192.94 193.73 192.94 193.14 C 192.94 192.75 193.26 191.94 194.28 191.92 Z" transform="matrix(4.609811, 2.14959, -2.436521, 5.225135, -256.283295, -1231.639648)" style="fill: rgb(51, 51, 51); text-wrap-mode: nowrap;"/></g><line style="fill: none; stroke: rgb(211, 211, 211);" x1="82.061" y1="109.133" x2="80.57" y2="386.715" id="object-4"/><path d="M 112.93 123.02 L 115.49 123.02 L 122.01 139.25 L 128.52 123.02 L 131.09 123.02 L 122.99 142.93 L 121 142.93 Z M 112.1 123.02 L 114.35 123.02 L 114.72 135.16 L 114.72 142.93 L 112.1 142.93 Z M 129.65 123.02 L 131.91 123.02 L 131.91 142.93 L 129.28 142.93 L 129.28 135.16 Z M 142.28 143.2 Q 140.73 143.2 139.48 142.67 Q 138.23 142.15 137.34 141.19 Q 136.44 140.23 135.96 138.92 Q 135.48 137.61 135.48 136.05 L 135.48 135.47 Q 135.48 133.67 136.02 132.25 Q 136.55 130.84 137.47 129.85 Q 138.38 128.87 139.54 128.36 Q 140.71 127.86 141.95 127.86 Q 143.54 127.86 144.69 128.41 Q 145.85 128.95 146.58 129.93 Q 147.32 130.91 147.68 132.23 Q 148.03 133.55 148.03 135.1 L 148.03 136.24 L 136.99 136.24 L 136.99 134.18 L 145.5 134.18 L 145.5 133.98 Q 145.45 133 145.1 132.07 Q 144.75 131.14 144 130.54 Q 143.25 129.94 141.95 129.94 Q 141.09 129.94 140.36 130.3 Q 139.64 130.66 139.12 131.37 Q 138.6 132.08 138.31 133.11 Q 138.03 134.13 138.03 135.47 L 138.03 136.05 Q 138.03 137.1 138.32 138.02 Q 138.61 138.95 139.18 139.64 Q 139.75 140.34 140.56 140.74 Q 141.38 141.13 142.42 141.13 Q 143.75 141.13 144.68 140.59 Q 145.61 140.04 146.31 139.12 L 147.84 140.34 Q 147.36 141.07 146.63 141.72 Q 145.89 142.38 144.81 142.79 Q 143.74 143.2 142.28 143.2 Z M 159.6 139 Q 159.6 138.45 159.36 137.98 Q 159.12 137.51 158.39 137.12 Q 157.66 136.73 156.2 136.44 Q 154.97 136.18 153.98 135.83 Q 152.98 135.47 152.29 134.97 Q 151.6 134.46 151.23 133.78 Q 150.87 133.09 150.87 132.18 Q 150.87 131.3 151.25 130.52 Q 151.64 129.75 152.36 129.14 Q 153.08 128.54 154.09 128.2 Q 155.1 127.86 156.35 127.86 Q 158.12 127.86 159.38 128.49 Q 160.64 129.12 161.31 130.16 Q 161.98 131.21 161.98 132.48 L 159.45 132.48 Q 159.45 131.86 159.09 131.28 Q 158.73 130.7 158.04 130.32 Q 157.35 129.94 156.35 129.94 Q 155.29 129.94 154.65 130.26 Q 154 130.58 153.7 131.07 Q 153.41 131.56 153.41 132.11 Q 153.41 132.52 153.55 132.84 Q 153.7 133.16 154.06 133.43 Q 154.43 133.7 155.1 133.93 Q 155.77 134.16 156.81 134.39 Q 158.63 134.8 159.81 135.38 Q 160.98 135.95 161.56 136.79 Q 162.13 137.62 162.13 138.81 Q 162.13 139.78 161.73 140.59 Q 161.32 141.39 160.57 141.97 Q 159.81 142.56 158.76 142.88 Q 157.71 143.2 156.42 143.2 Q 154.46 143.2 153.11 142.5 Q 151.75 141.8 151.06 140.7 Q 150.36 139.59 150.36 138.36 L 152.9 138.36 Q 152.96 139.4 153.5 140.01 Q 154.05 140.61 154.84 140.87 Q 155.64 141.12 156.42 141.12 Q 157.46 141.12 158.16 140.85 Q 158.86 140.57 159.23 140.09 Q 159.6 139.62 159.6 139 Z M 181.96 128.13 L 184.26 128.13 L 184.26 142.61 Q 184.26 144.57 183.46 145.95 Q 182.67 147.33 181.26 148.05 Q 179.84 148.76 177.99 148.76 Q 177.23 148.76 176.2 148.52 Q 175.16 148.28 174.17 147.72 Q 173.18 147.15 172.51 146.19 L 173.84 144.69 Q 174.77 145.81 175.79 146.25 Q 176.8 146.68 177.8 146.68 Q 179.01 146.68 179.88 146.23 Q 180.76 145.78 181.24 144.9 Q 181.73 144.02 181.73 142.73 L 181.73 131.39 Z M 171.77 135.69 L 171.77 135.41 Q 171.77 133.71 172.18 132.32 Q 172.58 130.93 173.34 129.94 Q 174.1 128.94 175.18 128.4 Q 176.26 127.86 177.61 127.86 Q 179.01 127.86 180.05 128.34 Q 181.1 128.83 181.83 129.75 Q 182.56 130.68 182.98 131.97 Q 183.41 133.27 183.57 134.91 L 183.57 136.17 Q 183.42 137.8 182.99 139.1 Q 182.56 140.4 181.83 141.31 Q 181.1 142.23 180.05 142.71 Q 178.99 143.2 177.58 143.2 Q 176.26 143.2 175.18 142.64 Q 174.11 142.08 173.35 141.07 Q 172.58 140.05 172.18 138.68 Q 171.77 137.31 171.77 135.69 Z M 174.3 135.41 L 174.3 135.69 Q 174.3 136.8 174.53 137.77 Q 174.75 138.74 175.23 139.48 Q 175.7 140.22 176.44 140.63 Q 177.17 141.05 178.2 141.05 Q 179.46 141.05 180.28 140.52 Q 181.1 139.99 181.58 139.11 Q 182.07 138.24 182.34 137.21 L 182.34 133.92 Q 182.19 133.16 181.88 132.46 Q 181.58 131.76 181.09 131.2 Q 180.61 130.65 179.89 130.32 Q 179.18 129.99 178.23 129.99 Q 177.19 129.99 176.44 130.42 Q 175.7 130.85 175.23 131.6 Q 174.75 132.34 174.53 133.32 Q 174.3 134.3 174.3 135.41 Z M 196.82 140.4 L 196.82 132.78 Q 196.82 131.91 196.47 131.26 Q 196.12 130.61 195.42 130.25 Q 194.73 129.9 193.7 129.9 Q 192.74 129.9 192.03 130.22 Q 191.31 130.55 190.9 131.09 Q 190.5 131.62 190.5 132.23 L 187.97 132.23 Q 187.97 131.44 188.38 130.66 Q 188.79 129.88 189.56 129.25 Q 190.34 128.61 191.42 128.23 Q 192.51 127.86 193.85 127.86 Q 195.46 127.86 196.7 128.41 Q 197.94 128.95 198.64 130.05 Q 199.35 131.15 199.35 132.81 L 199.35 139.7 Q 199.35 140.44 199.48 141.27 Q 199.61 142.1 199.87 142.71 L 199.87 142.93 L 197.23 142.93 Q 197.04 142.49 196.93 141.76 Q 196.82 141.02 196.82 140.4 Z M 197.25 133.96 L 197.28 135.73 L 194.73 135.73 Q 193.65 135.73 192.8 135.9 Q 191.95 136.08 191.38 136.42 Q 190.8 136.76 190.5 137.27 Q 190.2 137.78 190.2 138.47 Q 190.2 139.17 190.51 139.74 Q 190.83 140.31 191.46 140.65 Q 192.1 140.98 193.03 140.98 Q 194.19 140.98 195.08 140.49 Q 195.97 140 196.5 139.29 Q 197.02 138.58 197.06 137.91 L 198.14 139.12 Q 198.05 139.7 197.62 140.4 Q 197.2 141.09 196.5 141.73 Q 195.79 142.36 194.83 142.78 Q 193.86 143.2 192.66 143.2 Q 191.16 143.2 190.03 142.61 Q 188.9 142.02 188.28 141.03 Q 187.66 140.04 187.66 138.81 Q 187.66 137.62 188.12 136.71 Q 188.59 135.8 189.46 135.19 Q 190.34 134.59 191.57 134.27 Q 192.8 133.96 194.32 133.96 Z M 209.52 128.13 L 209.52 130.07 L 201.52 130.07 L 201.52 128.13 Z M 204.23 124.54 L 206.76 124.54 L 206.76 139.26 Q 206.76 140.01 206.99 140.4 Q 207.22 140.78 207.59 140.9 Q 207.96 141.02 208.38 141.02 Q 208.7 141.02 209.05 140.96 Q 209.4 140.9 209.57 140.86 L 209.59 142.93 Q 209.29 143.02 208.8 143.11 Q 208.32 143.2 207.63 143.2 Q 206.7 143.2 205.92 142.83 Q 205.14 142.46 204.69 141.59 Q 204.23 140.72 204.23 139.25 Z M 218.61 143.2 Q 217.07 143.2 215.82 142.67 Q 214.57 142.15 213.67 141.19 Q 212.78 140.23 212.3 138.92 Q 211.82 137.61 211.82 136.05 L 211.82 135.47 Q 211.82 133.67 212.35 132.25 Q 212.89 130.84 213.8 129.85 Q 214.72 128.87 215.88 128.36 Q 217.04 127.86 218.29 127.86 Q 219.87 127.86 221.03 128.41 Q 222.18 128.95 222.92 129.93 Q 223.66 130.91 224.01 132.23 Q 224.37 133.55 224.37 135.1 L 224.37 136.24 L 213.32 136.24 L 213.32 134.18 L 221.84 134.18 L 221.84 133.98 Q 221.79 133 221.44 132.07 Q 221.09 131.14 220.34 130.54 Q 219.58 129.94 218.29 129.94 Q 217.42 129.94 216.7 130.3 Q 215.98 130.66 215.46 131.37 Q 214.94 132.08 214.65 133.11 Q 214.36 134.13 214.36 135.47 L 214.36 136.05 Q 214.36 137.1 214.66 138.02 Q 214.95 138.95 215.52 139.64 Q 216.08 140.34 216.9 140.74 Q 217.71 141.13 218.75 141.13 Q 220.09 141.13 221.02 140.59 Q 221.95 140.04 222.65 139.12 L 224.18 140.34 Q 223.7 141.07 222.96 141.72 Q 222.22 142.38 221.15 142.79 Q 220.08 143.2 218.61 143.2 Z M 236.05 140.4 L 236.05 132.78 Q 236.05 131.91 235.7 131.26 Q 235.35 130.61 234.65 130.25 Q 233.96 129.9 232.93 129.9 Q 231.97 129.9 231.25 130.22 Q 230.54 130.55 230.13 131.09 Q 229.73 131.62 229.73 132.23 L 227.2 132.23 Q 227.2 131.44 227.61 130.66 Q 228.02 129.88 228.79 129.25 Q 229.57 128.61 230.65 128.23 Q 231.74 127.86 233.08 127.86 Q 234.69 127.86 235.93 128.41 Q 237.17 128.95 237.87 130.05 Q 238.58 131.15 238.58 132.81 L 238.58 139.7 Q 238.58 140.44 238.71 141.27 Q 238.84 142.1 239.1 142.71 L 239.1 142.93 L 236.46 142.93 Q 236.27 142.49 236.16 141.76 Q 236.05 141.02 236.05 140.4 Z M 236.48 133.96 L 236.51 135.73 L 233.96 135.73 Q 232.87 135.73 232.03 135.9 Q 231.18 136.08 230.61 136.42 Q 230.03 136.76 229.73 137.27 Q 229.43 137.78 229.43 138.47 Q 229.43 139.17 229.74 139.74 Q 230.06 140.31 230.69 140.65 Q 231.33 140.98 232.26 140.98 Q 233.42 140.98 234.31 140.49 Q 235.2 140 235.73 139.29 Q 236.25 138.58 236.29 137.91 L 237.37 139.12 Q 237.28 139.7 236.85 140.4 Q 236.43 141.09 235.73 141.73 Q 235.02 142.36 234.06 142.78 Q 233.09 143.2 231.89 143.2 Q 230.39 143.2 229.26 142.61 Q 228.13 142.02 227.51 141.03 Q 226.89 140.04 226.89 138.81 Q 226.89 137.62 227.35 136.71 Q 227.82 135.8 228.69 135.19 Q 229.57 134.59 230.8 134.27 Q 232.03 133.96 233.54 133.96 Z M 251.59 139.51 L 251.59 128.13 L 254.13 128.13 L 254.13 142.93 L 251.71 142.93 Z M 252.07 136.39 L 253.12 136.36 Q 253.12 137.84 252.81 139.09 Q 252.51 140.34 251.82 141.26 Q 251.14 142.17 250.03 142.69 Q 248.92 143.2 247.34 143.2 Q 246.26 143.2 245.36 142.88 Q 244.47 142.57 243.82 141.91 Q 243.18 141.26 242.83 140.2 Q 242.48 139.15 242.48 137.68 L 242.48 128.13 L 245.01 128.13 L 245.01 137.7 Q 245.01 138.7 245.24 139.35 Q 245.47 140 245.85 140.38 Q 246.24 140.75 246.73 140.9 Q 247.22 141.05 247.73 141.05 Q 249.35 141.05 250.29 140.43 Q 251.23 139.81 251.65 138.75 Q 252.07 137.69 252.07 136.39 Z M 259.68 128.13 L 262.92 133.52 L 266.2 128.13 L 269.17 128.13 L 264.33 135.43 L 269.32 142.93 L 266.39 142.93 L 262.97 137.37 L 259.55 142.93 L 256.62 142.93 L 261.59 135.43 L 256.77 128.13 Z" transform="matrix(0.521489, 0, 0, 0.501142, 42.533314, 58.663788)" style="fill: rgb(51, 51, 51); text-wrap-mode: nowrap;"/><path d="M 126.81 133.01 L 126.81 140.3 Q 126.44 140.85 125.63 141.52 Q 124.82 142.2 123.41 142.7 Q 121.99 143.2 119.77 143.2 Q 117.95 143.2 116.42 142.56 Q 114.9 141.93 113.78 140.7 Q 112.67 139.48 112.06 137.72 Q 111.45 135.97 111.45 133.74 L 111.45 132.19 Q 111.45 129.96 111.98 128.21 Q 112.51 126.46 113.53 125.24 Q 114.56 124.02 116.05 123.38 Q 117.54 122.75 119.46 122.75 Q 121.75 122.75 123.29 123.53 Q 124.82 124.32 125.69 125.7 Q 126.56 127.08 126.81 128.84 L 124.17 128.84 Q 123.99 127.76 123.46 126.87 Q 122.94 125.99 121.97 125.45 Q 121 124.91 119.46 124.91 Q 118.08 124.91 117.07 125.41 Q 116.06 125.92 115.4 126.86 Q 114.75 127.8 114.43 129.14 Q 114.11 130.48 114.11 132.17 L 114.11 133.74 Q 114.11 135.46 114.51 136.81 Q 114.91 138.17 115.66 139.12 Q 116.42 140.07 117.46 140.56 Q 118.51 141.05 119.78 141.05 Q 121.19 141.05 122.06 140.81 Q 122.94 140.57 123.43 140.24 Q 123.92 139.9 124.18 139.6 L 124.18 135.15 L 119.57 135.15 L 119.57 133.01 Z M 136.91 143.2 Q 135.37 143.2 134.12 142.67 Q 132.86 142.15 131.97 141.19 Q 131.07 140.23 130.6 138.92 Q 130.12 137.61 130.12 136.05 L 130.12 135.47 Q 130.12 133.67 130.65 132.25 Q 131.18 130.84 132.1 129.85 Q 133.02 128.87 134.18 128.36 Q 135.34 127.86 136.58 127.86 Q 138.17 127.86 139.32 128.41 Q 140.48 128.95 141.22 129.93 Q 141.96 130.91 142.31 132.23 Q 142.67 133.55 142.67 135.1 L 142.67 136.24 L 131.62 136.24 L 131.62 134.18 L 140.14 134.18 L 140.14 133.98 Q 140.08 133 139.73 132.07 Q 139.39 131.14 138.63 130.54 Q 137.88 129.94 136.58 129.94 Q 135.72 129.94 135 130.3 Q 134.27 130.66 133.75 131.37 Q 133.23 132.08 132.95 133.11 Q 132.66 134.13 132.66 135.47 L 132.66 136.05 Q 132.66 137.1 132.95 138.02 Q 133.25 138.95 133.81 139.64 Q 134.38 140.34 135.2 140.74 Q 136.01 141.13 137.05 141.13 Q 138.39 141.13 139.32 140.59 Q 140.25 140.04 140.94 139.12 L 142.48 140.34 Q 142 141.07 141.26 141.72 Q 140.52 142.38 139.45 142.79 Q 138.37 143.2 136.91 143.2 Z M 135.18 125.94 L 137.83 121.93 L 140.88 121.93 L 137.21 125.94 Z M 148.12 130.46 L 148.12 142.93 L 145.59 142.93 L 145.59 128.13 L 148.06 128.13 Z M 152.75 128.05 L 152.73 130.4 Q 152.42 130.33 152.14 130.31 Q 151.86 130.29 151.5 130.29 Q 150.63 130.29 149.96 130.57 Q 149.29 130.84 148.82 131.33 Q 148.36 131.82 148.09 132.5 Q 147.82 133.18 147.74 133.98 L 147.03 134.39 Q 147.03 133.05 147.3 131.88 Q 147.56 130.7 148.12 129.79 Q 148.68 128.88 149.55 128.37 Q 150.42 127.86 151.62 127.86 Q 151.9 127.86 152.25 127.92 Q 152.61 127.98 152.75 128.05 Z M 160.97 143.2 Q 159.43 143.2 158.18 142.67 Q 156.92 142.15 156.03 141.19 Q 155.13 140.23 154.66 138.92 Q 154.18 137.61 154.18 136.05 L 154.18 135.47 Q 154.18 133.67 154.71 132.25 Q 155.24 130.84 156.16 129.85 Q 157.08 128.87 158.24 128.36 Q 159.4 127.86 160.64 127.86 Q 162.23 127.86 163.38 128.41 Q 164.54 128.95 165.28 129.93 Q 166.02 130.91 166.37 132.23 Q 166.73 133.55 166.73 135.1 L 166.73 136.24 L 155.68 136.24 L 155.68 134.18 L 164.2 134.18 L 164.2 133.98 Q 164.14 133 163.79 132.07 Q 163.45 131.14 162.69 130.54 Q 161.94 129.94 160.64 129.94 Q 159.78 129.94 159.06 130.3 Q 158.33 130.66 157.81 131.37 Q 157.29 132.08 157.01 133.11 Q 156.72 134.13 156.72 135.47 L 156.72 136.05 Q 156.72 137.1 157.01 138.02 Q 157.31 138.95 157.87 139.64 Q 158.44 140.34 159.26 140.74 Q 160.07 141.13 161.11 141.13 Q 162.45 141.13 163.38 140.59 Q 164.31 140.04 165 139.12 L 166.54 140.34 Q 166.06 141.07 165.32 141.72 Q 164.58 142.38 163.51 142.79 Q 162.43 143.2 160.97 143.2 Z M 180.7 140.85 L 180.7 142.93 L 169.94 142.93 L 169.94 140.85 Z M 180.3 129.92 L 170.51 142.93 L 168.97 142.93 L 168.97 141.07 L 178.69 128.13 L 180.3 128.13 Z M 179.18 128.13 L 179.18 130.22 L 169.08 130.22 L 169.08 128.13 Z M 194.99 140.64 L 199.04 128.13 L 201.62 128.13 L 196.3 142.93 L 194.61 142.93 Z M 191.61 128.13 L 195.78 140.71 L 196.07 142.93 L 194.37 142.93 L 189.01 128.13 Z M 203.17 135.69 L 203.17 135.38 Q 203.17 133.78 203.64 132.4 Q 204.1 131.03 204.98 130.01 Q 205.85 128.99 207.1 128.43 Q 208.34 127.86 209.88 127.86 Q 211.44 127.86 212.69 128.43 Q 213.94 128.99 214.83 130.01 Q 215.71 131.03 216.17 132.4 Q 216.64 133.78 216.64 135.38 L 216.64 135.69 Q 216.64 137.29 216.17 138.66 Q 215.71 140.03 214.83 141.05 Q 213.94 142.06 212.71 142.63 Q 211.47 143.2 209.91 143.2 Q 208.35 143.2 207.11 142.63 Q 205.86 142.06 204.98 141.05 Q 204.1 140.03 203.64 138.66 Q 203.17 137.29 203.17 135.69 Z M 205.7 135.38 L 205.7 135.69 Q 205.7 136.8 205.96 137.78 Q 206.22 138.76 206.75 139.51 Q 207.27 140.26 208.07 140.69 Q 208.86 141.12 209.91 141.12 Q 210.95 141.12 211.74 140.69 Q 212.52 140.26 213.04 139.51 Q 213.56 138.76 213.83 137.78 Q 214.1 136.8 214.1 135.69 L 214.1 135.38 Q 214.1 134.28 213.83 133.31 Q 213.56 132.33 213.04 131.57 Q 212.51 130.81 211.72 130.37 Q 210.94 129.94 209.88 129.94 Q 208.85 129.94 208.06 130.37 Q 207.27 130.81 206.75 131.57 Q 206.22 132.33 205.96 133.31 Q 205.7 134.28 205.7 135.38 Z M 226 128.13 L 226 130.07 L 218 130.07 L 218 128.13 Z M 220.71 124.54 L 223.24 124.54 L 223.24 139.26 Q 223.24 140.01 223.47 140.4 Q 223.7 140.78 224.07 140.9 Q 224.44 141.02 224.86 141.02 Q 225.18 141.02 225.53 140.96 Q 225.88 140.9 226.05 140.86 L 226.07 142.93 Q 225.77 143.02 225.28 143.11 Q 224.8 143.2 224.11 143.2 Q 223.18 143.2 222.4 142.83 Q 221.62 142.46 221.17 141.59 Q 220.71 140.72 220.71 139.25 Z M 231.5 130.46 L 231.5 142.93 L 228.97 142.93 L 228.97 128.13 L 231.43 128.13 Z M 236.12 128.05 L 236.1 130.4 Q 235.79 130.33 235.51 130.31 Q 235.23 130.29 234.87 130.29 Q 234 130.29 233.33 130.57 Q 232.66 130.84 232.19 131.33 Q 231.73 131.82 231.46 132.5 Q 231.2 133.18 231.11 133.98 L 230.4 134.39 Q 230.4 133.05 230.67 131.88 Q 230.94 130.7 231.5 129.79 Q 232.06 128.88 232.93 128.37 Q 233.79 127.86 235 127.86 Q 235.27 127.86 235.63 127.92 Q 235.98 127.98 236.12 128.05 Z M 244.32 143.2 Q 242.77 143.2 241.52 142.67 Q 240.27 142.15 239.38 141.19 Q 238.48 140.23 238 138.92 Q 237.52 137.61 237.52 136.05 L 237.52 135.47 Q 237.52 133.67 238.06 132.25 Q 238.59 130.84 239.51 129.85 Q 240.42 128.87 241.58 128.36 Q 242.75 127.86 243.99 127.86 Q 245.58 127.86 246.73 128.41 Q 247.89 128.95 248.63 129.93 Q 249.36 130.91 249.72 132.23 Q 250.07 133.55 250.07 135.1 L 250.07 136.24 L 239.03 136.24 L 239.03 134.18 L 247.55 134.18 L 247.55 133.98 Q 247.49 133 247.14 132.07 Q 246.79 131.14 246.04 130.54 Q 245.29 129.94 243.99 129.94 Q 243.13 129.94 242.4 130.3 Q 241.68 130.66 241.16 131.37 Q 240.64 132.08 240.35 133.11 Q 240.07 134.13 240.07 135.47 L 240.07 136.05 Q 240.07 137.1 240.36 138.02 Q 240.65 138.95 241.22 139.64 Q 241.79 140.34 242.6 140.74 Q 243.42 141.13 244.46 141.13 Q 245.8 141.13 246.72 140.59 Q 247.65 140.04 248.35 139.12 L 249.88 140.34 Q 249.4 141.07 248.67 141.72 Q 247.93 142.38 246.85 142.79 Q 245.78 143.2 244.32 143.2 Z M 265.9 141.12 Q 266.8 141.12 267.57 140.75 Q 268.33 140.38 268.83 139.73 Q 269.32 139.08 269.39 138.25 L 271.79 138.25 Q 271.73 139.56 270.91 140.69 Q 270.1 141.82 268.79 142.51 Q 267.47 143.2 265.9 143.2 Q 264.23 143.2 263 142.61 Q 261.76 142.02 260.95 141 Q 260.13 139.97 259.73 138.64 Q 259.32 137.31 259.32 135.82 L 259.32 135.24 Q 259.32 133.75 259.73 132.42 Q 260.13 131.09 260.95 130.06 Q 261.76 129.03 263 128.45 Q 264.23 127.86 265.9 127.86 Q 267.64 127.86 268.94 128.56 Q 270.24 129.27 270.98 130.48 Q 271.73 131.69 271.79 133.22 L 269.39 133.22 Q 269.32 132.3 268.87 131.56 Q 268.43 130.83 267.67 130.38 Q 266.91 129.94 265.9 129.94 Q 264.74 129.94 263.95 130.39 Q 263.17 130.85 262.71 131.63 Q 262.25 132.4 262.05 133.33 Q 261.85 134.27 261.85 135.24 L 261.85 135.82 Q 261.85 136.79 262.05 137.73 Q 262.24 138.67 262.7 139.44 Q 263.15 140.2 263.94 140.66 Q 264.73 141.12 265.9 141.12 Z M 283.35 140.4 L 283.35 132.78 Q 283.35 131.91 283 131.26 Q 282.65 130.61 281.95 130.25 Q 281.26 129.9 280.23 129.9 Q 279.27 129.9 278.56 130.22 Q 277.84 130.55 277.43 131.09 Q 277.03 131.62 277.03 132.23 L 274.5 132.23 Q 274.5 131.44 274.91 130.66 Q 275.32 129.88 276.1 129.25 Q 276.87 128.61 277.95 128.23 Q 279.04 127.86 280.38 127.86 Q 281.99 127.86 283.23 128.41 Q 284.47 128.95 285.17 130.05 Q 285.88 131.15 285.88 132.81 L 285.88 139.7 Q 285.88 140.44 286.01 141.27 Q 286.14 142.1 286.4 142.71 L 286.4 142.93 L 283.76 142.93 Q 283.57 142.49 283.46 141.76 Q 283.35 141.02 283.35 140.4 Z M 283.79 133.96 L 283.81 135.73 L 281.26 135.73 Q 280.18 135.73 279.33 135.9 Q 278.48 136.08 277.91 136.42 Q 277.33 136.76 277.03 137.27 Q 276.73 137.78 276.73 138.47 Q 276.73 139.17 277.05 139.74 Q 277.36 140.31 278 140.65 Q 278.63 140.98 279.56 140.98 Q 280.72 140.98 281.61 140.49 Q 282.5 140 283.03 139.29 Q 283.55 138.58 283.59 137.91 L 284.67 139.12 Q 284.58 139.7 284.15 140.4 Q 283.73 141.09 283.03 141.73 Q 282.32 142.36 281.36 142.78 Q 280.39 143.2 279.19 143.2 Q 277.69 143.2 276.56 142.61 Q 275.43 142.02 274.81 141.03 Q 274.19 140.04 274.19 138.81 Q 274.19 137.62 274.65 136.71 Q 275.12 135.8 275.99 135.19 Q 276.87 134.59 278.1 134.27 Q 279.33 133.96 280.85 133.96 Z M 296.05 128.13 L 296.05 130.07 L 288.05 130.07 L 288.05 128.13 Z M 290.76 124.54 L 293.28 124.54 L 293.28 139.26 Q 293.28 140.01 293.52 140.4 Q 293.75 140.78 294.12 140.9 Q 294.49 141.02 294.91 141.02 Q 295.23 141.02 295.57 140.96 Q 295.92 140.9 296.1 140.86 L 296.11 142.93 Q 295.81 143.02 295.33 143.11 Q 294.84 143.2 294.16 143.2 Q 293.23 143.2 292.45 142.83 Q 291.67 142.46 291.21 141.59 Q 290.76 140.72 290.76 139.25 Z M 307.71 140.4 L 307.71 132.78 Q 307.71 131.91 307.36 131.26 Q 307.02 130.61 306.32 130.25 Q 305.62 129.9 304.6 129.9 Q 303.64 129.9 302.92 130.22 Q 302.2 130.55 301.8 131.09 Q 301.4 131.62 301.4 132.23 L 298.87 132.23 Q 298.87 131.44 299.28 130.66 Q 299.69 129.88 300.46 129.25 Q 301.23 128.61 302.32 128.23 Q 303.41 127.86 304.75 127.86 Q 306.36 127.86 307.6 128.41 Q 308.83 128.95 309.54 130.05 Q 310.24 131.15 310.24 132.81 L 310.24 139.7 Q 310.24 140.44 310.37 141.27 Q 310.5 142.1 310.76 142.71 L 310.76 142.93 L 308.12 142.93 Q 307.93 142.49 307.82 141.76 Q 307.71 141.02 307.71 140.4 Z M 308.15 133.96 L 308.18 135.73 L 305.62 135.73 Q 304.54 135.73 303.69 135.9 Q 302.85 136.08 302.27 136.42 Q 301.7 136.76 301.4 137.27 Q 301.1 137.78 301.1 138.47 Q 301.1 139.17 301.41 139.74 Q 301.72 140.31 302.36 140.65 Q 303 140.98 303.93 140.98 Q 305.09 140.98 305.98 140.49 Q 306.86 140 307.39 139.29 Q 307.92 138.58 307.96 137.91 L 309.04 139.12 Q 308.94 139.7 308.52 140.4 Q 308.1 141.09 307.39 141.73 Q 306.69 142.36 305.72 142.78 Q 304.76 143.2 303.56 143.2 Q 302.05 143.2 300.92 142.61 Q 299.8 142.02 299.17 141.03 Q 298.55 140.04 298.55 138.81 Q 298.55 137.62 299.02 136.71 Q 299.48 135.8 300.36 135.19 Q 301.23 134.59 302.46 134.27 Q 303.69 133.96 305.21 133.96 Z M 316.97 121.93 L 316.97 142.93 L 314.42 142.93 L 314.42 121.93 Z M 320.35 135.69 L 320.35 135.38 Q 320.35 133.78 320.81 132.4 Q 321.28 131.03 322.15 130.01 Q 323.03 128.99 324.27 128.43 Q 325.52 127.86 327.06 127.86 Q 328.62 127.86 329.87 128.43 Q 331.12 128.99 332 130.01 Q 332.89 131.03 333.35 132.4 Q 333.82 133.78 333.82 135.38 L 333.82 135.69 Q 333.82 137.29 333.35 138.66 Q 332.89 140.03 332 141.05 Q 331.12 142.06 329.89 142.63 Q 328.65 143.2 327.09 143.2 Q 325.53 143.2 324.29 142.63 Q 323.04 142.06 322.16 141.05 Q 321.28 140.03 320.81 138.66 Q 320.35 137.29 320.35 135.69 Z M 322.88 135.38 L 322.88 135.69 Q 322.88 136.8 323.14 137.78 Q 323.4 138.76 323.92 139.51 Q 324.45 140.26 325.24 140.69 Q 326.04 141.12 327.09 141.12 Q 328.13 141.12 328.92 140.69 Q 329.7 140.26 330.22 139.51 Q 330.74 138.76 331.01 137.78 Q 331.27 136.8 331.27 135.69 L 331.27 135.38 Q 331.27 134.28 331.01 133.31 Q 330.74 132.33 330.21 131.57 Q 329.69 130.81 328.9 130.37 Q 328.12 129.94 327.06 129.94 Q 326.02 129.94 325.24 130.37 Q 324.45 130.81 323.92 131.57 Q 323.4 132.33 323.14 133.31 Q 322.88 134.28 322.88 135.38 Z M 346.57 128.13 L 348.86 128.13 L 348.86 142.61 Q 348.86 144.57 348.07 145.95 Q 347.28 147.33 345.86 148.05 Q 344.45 148.76 342.6 148.76 Q 341.84 148.76 340.8 148.52 Q 339.77 148.28 338.78 147.72 Q 337.79 147.15 337.12 146.19 L 338.45 144.69 Q 339.38 145.81 340.39 146.25 Q 341.41 146.68 342.41 146.68 Q 343.61 146.68 344.49 146.23 Q 345.36 145.78 345.85 144.9 Q 346.33 144.02 346.33 142.73 L 346.33 131.39 Z M 336.38 135.69 L 336.38 135.41 Q 336.38 133.71 336.79 132.32 Q 337.19 130.93 337.95 129.94 Q 338.71 128.94 339.79 128.4 Q 340.87 127.86 342.22 127.86 Q 343.61 127.86 344.66 128.34 Q 345.71 128.83 346.44 129.75 Q 347.17 130.68 347.59 131.97 Q 348.02 133.27 348.18 134.91 L 348.18 136.17 Q 348.03 137.8 347.6 139.1 Q 347.17 140.4 346.44 141.31 Q 345.71 142.23 344.65 142.71 Q 343.6 143.2 342.19 143.2 Q 340.87 143.2 339.79 142.64 Q 338.72 142.08 337.95 141.07 Q 337.19 140.05 336.79 138.68 Q 336.38 137.31 336.38 135.69 Z M 338.91 135.41 L 338.91 135.69 Q 338.91 136.8 339.14 137.77 Q 339.36 138.74 339.83 139.48 Q 340.31 140.22 341.04 140.63 Q 341.78 141.05 342.81 141.05 Q 344.07 141.05 344.89 140.52 Q 345.71 139.99 346.19 139.11 Q 346.68 138.24 346.95 137.21 L 346.95 133.92 Q 346.8 133.16 346.49 132.46 Q 346.18 131.76 345.7 131.2 Q 345.21 130.65 344.5 130.32 Q 343.79 129.99 342.83 129.99 Q 341.8 129.99 341.05 130.42 Q 340.31 130.85 339.83 131.6 Q 339.36 132.34 339.14 133.32 Q 338.91 134.3 338.91 135.41 Z M 361.74 139.51 L 361.74 128.13 L 364.29 128.13 L 364.29 142.93 L 361.87 142.93 Z M 362.22 136.39 L 363.28 136.36 Q 363.28 137.84 362.97 139.09 Q 362.66 140.34 361.98 141.26 Q 361.29 142.17 360.19 142.69 Q 359.08 143.2 357.49 143.2 Q 356.41 143.2 355.52 142.88 Q 354.62 142.57 353.98 141.91 Q 353.34 141.26 352.99 140.2 Q 352.64 139.15 352.64 137.68 L 352.64 128.13 L 355.17 128.13 L 355.17 137.7 Q 355.17 138.7 355.39 139.35 Q 355.62 140 356.01 140.38 Q 356.4 140.75 356.88 140.9 Q 357.37 141.05 357.89 141.05 Q 359.5 141.05 360.45 140.43 Q 361.39 139.81 361.81 138.75 Q 362.22 137.69 362.22 136.39 Z M 374.26 143.2 Q 372.72 143.2 371.47 142.67 Q 370.22 142.15 369.32 141.19 Q 368.43 140.23 367.95 138.92 Q 367.47 137.61 367.47 136.05 L 367.47 135.47 Q 367.47 133.67 368 132.25 Q 368.53 130.84 369.45 129.85 Q 370.37 128.87 371.53 128.36 Q 372.69 127.86 373.93 127.86 Q 375.52 127.86 376.68 128.41 Q 377.83 128.95 378.57 129.93 Q 379.31 130.91 379.66 132.23 Q 380.02 133.55 380.02 135.1 L 380.02 136.24 L 368.97 136.24 L 368.97 134.18 L 377.49 134.18 L 377.49 133.98 Q 377.43 133 377.09 132.07 Q 376.74 131.14 375.99 130.54 Q 375.23 129.94 373.93 129.94 Q 373.07 129.94 372.35 130.3 Q 371.62 130.66 371.1 131.37 Q 370.59 132.08 370.3 133.11 Q 370.01 134.13 370.01 135.47 L 370.01 136.05 Q 370.01 137.1 370.3 138.02 Q 370.6 138.95 371.17 139.64 Q 371.73 140.34 372.55 140.74 Q 373.36 141.13 374.4 141.13 Q 375.74 141.13 376.67 140.59 Q 377.6 140.04 378.3 139.12 L 379.83 140.34 Q 379.35 141.07 378.61 141.72 Q 377.87 142.38 376.8 142.79 Q 375.73 143.2 374.26 143.2 Z M 399.25 140.05 L 399.25 121.93 L 401.79 121.93 L 401.79 142.93 L 399.47 142.93 Z M 389.3 135.69 L 389.3 135.41 Q 389.3 133.71 389.71 132.32 Q 390.13 130.93 390.9 129.94 Q 391.68 128.94 392.75 128.4 Q 393.82 127.86 395.15 127.86 Q 396.54 127.86 397.59 128.34 Q 398.63 128.83 399.37 129.75 Q 400.1 130.68 400.52 131.97 Q 400.95 133.27 401.11 134.91 L 401.11 136.17 Q 400.96 137.8 400.53 139.1 Q 400.1 140.4 399.37 141.31 Q 398.63 142.23 397.58 142.71 Q 396.53 143.2 395.12 143.2 Q 393.82 143.2 392.75 142.64 Q 391.68 142.08 390.9 141.07 Q 390.13 140.05 389.71 138.68 Q 389.3 137.31 389.3 135.69 Z M 391.84 135.41 L 391.84 135.69 Q 391.84 136.8 392.07 137.77 Q 392.29 138.74 392.77 139.48 Q 393.25 140.22 393.99 140.63 Q 394.72 141.05 395.75 141.05 Q 397.01 141.05 397.82 140.52 Q 398.63 139.99 399.13 139.11 Q 399.62 138.24 399.89 137.21 L 399.89 133.92 Q 399.73 133.16 399.42 132.46 Q 399.11 131.76 398.63 131.2 Q 398.14 130.65 397.44 130.32 Q 396.73 129.99 395.78 129.99 Q 394.74 129.99 393.99 130.42 Q 393.25 130.85 392.77 131.6 Q 392.29 132.34 392.07 133.32 Q 391.84 134.3 391.84 135.41 Z M 411.83 143.2 Q 410.28 143.2 409.03 142.67 Q 407.78 142.15 406.88 141.19 Q 405.99 140.23 405.51 138.92 Q 405.03 137.61 405.03 136.05 L 405.03 135.47 Q 405.03 133.67 405.56 132.25 Q 406.1 130.84 407.01 129.85 Q 407.93 128.87 409.09 128.36 Q 410.25 127.86 411.5 127.86 Q 413.08 127.86 414.24 128.41 Q 415.39 128.95 416.13 129.93 Q 416.87 130.91 417.23 132.23 Q 417.58 133.55 417.58 135.1 L 417.58 136.24 L 406.53 136.24 L 406.53 134.18 L 415.05 134.18 L 415.05 133.98 Q 415 133 414.65 132.07 Q 414.3 131.14 413.55 130.54 Q 412.8 129.94 411.5 129.94 Q 410.64 129.94 409.91 130.3 Q 409.19 130.66 408.67 131.37 Q 408.15 132.08 407.86 133.11 Q 407.57 134.13 407.57 135.47 L 407.57 136.05 Q 407.57 137.1 407.87 138.02 Q 408.16 138.95 408.73 139.64 Q 409.3 140.34 410.11 140.74 Q 410.92 141.13 411.96 141.13 Q 413.3 141.13 414.23 140.59 Q 415.16 140.04 415.86 139.12 L 417.39 140.34 Q 416.91 141.07 416.17 141.72 Q 415.43 142.38 414.36 142.79 Q 413.29 143.2 411.83 143.2 Z M 437.07 128.13 L 439.37 128.13 L 439.37 142.61 Q 439.37 144.57 438.58 145.95 Q 437.78 147.33 436.37 148.05 Q 434.95 148.76 433.11 148.76 Q 432.34 148.76 431.31 148.52 Q 430.28 148.28 429.29 147.72 Q 428.29 147.15 427.62 146.19 L 428.95 144.69 Q 429.88 145.81 430.9 146.25 Q 431.92 146.68 432.92 146.68 Q 434.12 146.68 434.99 146.23 Q 435.87 145.78 436.35 144.9 Q 436.84 144.02 436.84 142.73 L 436.84 131.39 Z M 426.89 135.69 L 426.89 135.41 Q 426.89 133.71 427.29 132.32 Q 427.69 130.93 428.45 129.94 Q 429.21 128.94 430.29 128.4 Q 431.37 127.86 432.72 127.86 Q 434.12 127.86 435.16 128.34 Q 436.21 128.83 436.94 129.75 Q 437.67 130.68 438.1 131.97 Q 438.52 133.27 438.68 134.91 L 438.68 136.17 Q 438.53 137.8 438.1 139.1 Q 437.67 140.4 436.94 141.31 Q 436.21 142.23 435.16 142.71 Q 434.1 143.2 432.7 143.2 Q 431.37 143.2 430.3 142.64 Q 429.22 142.08 428.46 141.07 Q 427.69 140.05 427.29 138.68 Q 426.89 137.31 426.89 135.69 Z M 429.42 135.41 L 429.42 135.69 Q 429.42 136.8 429.64 137.77 Q 429.87 138.74 430.34 139.48 Q 430.81 140.22 431.55 140.63 Q 432.29 141.05 433.31 141.05 Q 434.57 141.05 435.39 140.52 Q 436.21 139.99 436.7 139.11 Q 437.18 138.24 437.45 137.21 L 437.45 133.92 Q 437.3 133.16 437 132.46 Q 436.69 131.76 436.2 131.2 Q 435.72 130.65 435.01 130.32 Q 434.3 129.99 433.34 129.99 Q 432.3 129.99 431.55 130.42 Q 430.81 130.85 430.34 131.6 Q 429.87 132.34 429.64 133.32 Q 429.42 134.3 429.42 135.41 Z M 451.92 140.4 L 451.92 132.78 Q 451.92 131.91 451.57 131.26 Q 451.22 130.61 450.53 130.25 Q 449.83 129.9 448.8 129.9 Q 447.85 129.9 447.13 130.22 Q 446.41 130.55 446.01 131.09 Q 445.6 131.62 445.6 132.23 L 443.07 132.23 Q 443.07 131.44 443.48 130.66 Q 443.89 129.88 444.67 129.25 Q 445.44 128.61 446.53 128.23 Q 447.61 127.86 448.95 127.86 Q 450.57 127.86 451.8 128.41 Q 453.04 128.95 453.75 130.05 Q 454.45 131.15 454.45 132.81 L 454.45 139.7 Q 454.45 140.44 454.58 141.27 Q 454.71 142.1 454.97 142.71 L 454.97 142.93 L 452.33 142.93 Q 452.14 142.49 452.03 141.76 Q 451.92 141.02 451.92 140.4 Z M 452.36 133.96 L 452.39 135.73 L 449.83 135.73 Q 448.75 135.73 447.9 135.9 Q 447.05 136.08 446.48 136.42 Q 445.9 136.76 445.6 137.27 Q 445.3 137.78 445.3 138.47 Q 445.3 139.17 445.62 139.74 Q 445.93 140.31 446.57 140.65 Q 447.2 140.98 448.13 140.98 Q 449.3 140.98 450.18 140.49 Q 451.07 140 451.6 139.29 Q 452.13 138.58 452.17 137.91 L 453.25 139.12 Q 453.15 139.7 452.73 140.4 Q 452.3 141.09 451.6 141.73 Q 450.89 142.36 449.93 142.78 Q 448.97 143.2 447.76 143.2 Q 446.26 143.2 445.13 142.61 Q 444 142.02 443.38 141.03 Q 442.76 140.04 442.76 138.81 Q 442.76 137.62 443.22 136.71 Q 443.69 135.8 444.56 135.19 Q 445.44 134.59 446.67 134.27 Q 447.9 133.96 449.42 133.96 Z M 464.62 128.13 L 464.62 130.07 L 456.62 130.07 L 456.62 128.13 Z M 459.33 124.54 L 461.86 124.54 L 461.86 139.26 Q 461.86 140.01 462.09 140.4 Q 462.32 140.78 462.69 140.9 Q 463.06 141.02 463.48 141.02 Q 463.8 141.02 464.15 140.96 Q 464.5 140.9 464.67 140.86 L 464.69 142.93 Q 464.39 143.02 463.9 143.11 Q 463.42 143.2 462.73 143.2 Q 461.8 143.2 461.02 142.83 Q 460.24 142.46 459.79 141.59 Q 459.33 140.72 459.33 139.25 Z M 473.7 143.2 Q 472.16 143.2 470.9 142.67 Q 469.65 142.15 468.76 141.19 Q 467.86 140.23 467.38 138.92 Q 466.91 137.61 466.91 136.05 L 466.91 135.47 Q 466.91 133.67 467.44 132.25 Q 467.97 130.84 468.89 129.85 Q 469.8 128.87 470.97 128.36 Q 472.13 127.86 473.37 127.86 Q 474.96 127.86 476.11 128.41 Q 477.27 128.95 478.01 129.93 Q 478.75 130.91 479.1 132.23 Q 479.46 133.55 479.46 135.1 L 479.46 136.24 L 468.41 136.24 L 468.41 134.18 L 476.93 134.18 L 476.93 133.98 Q 476.87 133 476.52 132.07 Q 476.18 131.14 475.42 130.54 Q 474.67 129.94 473.37 129.94 Q 472.51 129.94 471.79 130.3 Q 471.06 130.66 470.54 131.37 Q 470.02 132.08 469.74 133.11 Q 469.45 134.13 469.45 135.47 L 469.45 136.05 Q 469.45 137.1 469.74 138.02 Q 470.04 138.95 470.6 139.64 Q 471.17 140.34 471.99 140.74 Q 472.8 141.13 473.84 141.13 Q 475.18 141.13 476.11 140.59 Q 477.04 140.04 477.73 139.12 L 479.27 140.34 Q 478.79 141.07 478.05 141.72 Q 477.31 142.38 476.24 142.79 Q 475.16 143.2 473.7 143.2 Z M 491.13 140.4 L 491.13 132.78 Q 491.13 131.91 490.78 131.26 Q 490.43 130.61 489.74 130.25 Q 489.04 129.9 488.01 129.9 Q 487.06 129.9 486.34 130.22 Q 485.62 130.55 485.22 131.09 Q 484.82 131.62 484.82 132.23 L 482.29 132.23 Q 482.29 131.44 482.7 130.66 Q 483.11 129.88 483.88 129.25 Q 484.65 128.61 485.74 128.23 Q 486.83 127.86 488.17 127.86 Q 489.78 127.86 491.02 128.41 Q 492.25 128.95 492.96 130.05 Q 493.66 131.15 493.66 132.81 L 493.66 139.7 Q 493.66 140.44 493.79 141.27 Q 493.92 142.1 494.18 142.71 L 494.18 142.93 L 491.54 142.93 Q 491.35 142.49 491.24 141.76 Q 491.13 141.02 491.13 140.4 Z M 491.57 133.96 L 491.6 135.73 L 489.04 135.73 Q 487.96 135.73 487.11 135.9 Q 486.26 136.08 485.69 136.42 Q 485.12 136.76 484.82 137.27 Q 484.51 137.78 484.51 138.47 Q 484.51 139.17 484.83 139.74 Q 485.14 140.31 485.78 140.65 Q 486.42 140.98 487.34 140.98 Q 488.51 140.98 489.4 140.49 Q 490.28 140 490.81 139.29 Q 491.34 138.58 491.38 137.91 L 492.46 139.12 Q 492.36 139.7 491.94 140.4 Q 491.51 141.09 490.81 141.73 Q 490.11 142.36 489.14 142.78 Q 488.18 143.2 486.98 143.2 Q 485.47 143.2 484.34 142.61 Q 483.22 142.02 482.59 141.03 Q 481.97 140.04 481.97 138.81 Q 481.97 137.62 482.44 136.71 Q 482.9 135.8 483.78 135.19 Q 484.65 134.59 485.88 134.27 Q 487.11 133.96 488.63 133.96 Z M 506.69 139.51 L 506.69 128.13 L 509.23 128.13 L 509.23 142.93 L 506.81 142.93 Z M 507.17 136.39 L 508.22 136.36 Q 508.22 137.84 507.91 139.09 Q 507.6 140.34 506.92 141.26 Q 506.24 142.17 505.13 142.69 Q 504.02 143.2 502.44 143.2 Q 501.36 143.2 500.46 142.88 Q 499.56 142.57 498.92 141.91 Q 498.28 141.26 497.93 140.2 Q 497.58 139.15 497.58 137.68 L 497.58 128.13 L 500.11 128.13 L 500.11 137.7 Q 500.11 138.7 500.34 139.35 Q 500.56 140 500.95 140.38 Q 501.34 140.75 501.83 140.9 Q 502.31 141.05 502.83 141.05 Q 504.45 141.05 505.39 140.43 Q 506.33 139.81 506.75 138.75 Q 507.17 137.69 507.17 136.39 Z M 514.78 128.13 L 518.02 133.52 L 521.3 128.13 L 524.27 128.13 L 519.43 135.43 L 524.42 142.93 L 521.49 142.93 L 518.07 137.37 L 514.65 142.93 L 511.71 142.93 L 516.69 135.43 L 511.86 128.13 Z" transform="matrix(0.31642, 0, 0, 0.298988, 65.608368, 101.041924)" style="fill: rgb(112, 112, 112); text-wrap-mode: nowrap;"/><rect style="fill: rgb(216, 216, 216); stroke-linejoin: round;" x="101.661" y="163.939" width="22.745" height="14.013" rx="3" ry="3" id="object-7"/><rect style="fill: rgb(216, 216, 216); stroke-linejoin: round;" x="131.471" y="163.976" width="48.638" height="14.013" rx="3" ry="3" id="object-8"/><rect style="fill: rgb(216, 216, 216); stroke-linejoin: round;" x="188.016" y="163.657" width="68.55" height="14.013" rx="3" ry="3" id="object-9"/><rect style="fill: rgb(216, 216, 216); stroke-linejoin: round;" x="264.593" y="163.657" width="37.032" height="14.013" rx="3" ry="3" id="object-10"/><rect style="stroke-linejoin: round; fill: rgb(255, 111, 97);" x="345.015" y="122.776" width="90.778" height="21.288" rx="3" ry="3" id="object-11"/><path d="M 124.5 132.25 L 124.5 134.63 L 110.85 134.63 L 110.85 132.25 Z M 118.95 126.44 L 118.95 140.93 L 116.42 140.93 L 116.42 126.44 Z M 142.28 124.78 L 135.69 142.93 L 133 142.93 L 140.59 123.02 L 142.32 123.02 Z M 147.8 142.93 L 141.2 124.78 L 141.16 123.02 L 142.9 123.02 L 150.51 142.93 Z M 147.46 135.56 L 147.46 137.72 L 136.28 137.72 L 136.28 135.56 Z M 152.85 128.13 L 155.39 128.13 L 155.39 144.69 Q 155.39 146.04 154.96 146.99 Q 154.53 147.93 153.67 148.41 Q 152.82 148.9 151.52 148.9 Q 151.18 148.9 150.72 148.83 Q 150.26 148.76 149.95 148.67 L 149.96 146.63 Q 150.22 146.68 150.55 146.72 Q 150.88 146.75 151.12 146.75 Q 151.68 146.75 152.07 146.55 Q 152.45 146.34 152.65 145.89 Q 152.85 145.44 152.85 144.69 Z M 152.59 124.21 Q 152.59 123.59 152.97 123.17 Q 153.35 122.75 154.08 122.75 Q 154.81 122.75 155.2 123.17 Q 155.58 123.59 155.58 124.21 Q 155.58 124.8 155.2 125.21 Q 154.81 125.63 154.08 125.63 Q 153.35 125.63 152.97 125.21 Q 152.59 124.8 152.59 124.21 Z M 158.81 135.69 L 158.81 135.38 Q 158.81 133.78 159.27 132.4 Q 159.74 131.03 160.61 130.01 Q 161.49 128.99 162.73 128.43 Q 163.98 127.86 165.52 127.86 Q 167.08 127.86 168.33 128.43 Q 169.58 128.99 170.46 130.01 Q 171.34 131.03 171.81 132.4 Q 172.27 133.78 172.27 135.38 L 172.27 135.69 Q 172.27 137.29 171.81 138.66 Q 171.34 140.03 170.46 141.05 Q 169.58 142.06 168.34 142.63 Q 167.11 143.2 165.55 143.2 Q 163.99 143.2 162.74 142.63 Q 161.5 142.06 160.62 141.05 Q 159.74 140.03 159.27 138.66 Q 158.81 137.29 158.81 135.69 Z M 161.34 135.38 L 161.34 135.69 Q 161.34 136.8 161.6 137.78 Q 161.86 138.76 162.38 139.51 Q 162.91 140.26 163.7 140.69 Q 164.49 141.12 165.55 141.12 Q 166.59 141.12 167.37 140.69 Q 168.16 140.26 168.68 139.51 Q 169.2 138.76 169.46 137.78 Q 169.73 136.8 169.73 135.69 L 169.73 135.38 Q 169.73 134.28 169.46 133.31 Q 169.2 132.33 168.67 131.57 Q 168.15 130.81 167.36 130.37 Q 166.57 129.94 165.52 129.94 Q 164.48 129.94 163.7 130.37 Q 162.91 130.81 162.38 131.57 Q 161.86 132.33 161.6 133.31 Q 161.34 134.28 161.34 135.38 Z M 184.49 139.51 L 184.49 128.13 L 187.04 128.13 L 187.04 142.93 L 184.62 142.93 Z M 184.97 136.39 L 186.02 136.36 Q 186.02 137.84 185.72 139.09 Q 185.41 140.34 184.72 141.26 Q 184.04 142.17 182.93 142.69 Q 181.83 143.2 180.24 143.2 Q 179.16 143.2 178.26 142.88 Q 177.37 142.57 176.73 141.91 Q 176.08 141.26 175.74 140.2 Q 175.39 139.15 175.39 137.68 L 175.39 128.13 L 177.92 128.13 L 177.92 137.7 Q 177.92 138.7 178.14 139.35 Q 178.37 140 178.76 140.38 Q 179.15 140.75 179.63 140.9 Q 180.12 141.05 180.64 141.05 Q 182.25 141.05 183.19 140.43 Q 184.14 139.81 184.55 138.75 Q 184.97 137.69 184.97 136.39 Z M 197.07 128.13 L 197.07 130.07 L 189.07 130.07 L 189.07 128.13 Z M 191.77 124.54 L 194.3 124.54 L 194.3 139.26 Q 194.3 140.01 194.54 140.4 Q 194.77 140.78 195.14 140.9 Q 195.51 141.02 195.93 141.02 Q 196.25 141.02 196.59 140.96 Q 196.94 140.9 197.12 140.86 L 197.13 142.93 Q 196.83 143.02 196.35 143.11 Q 195.86 143.2 195.18 143.2 Q 194.25 143.2 193.47 142.83 Q 192.69 142.46 192.23 141.59 Q 191.77 140.72 191.77 139.25 Z M 206.15 143.2 Q 204.6 143.2 203.35 142.67 Q 202.1 142.15 201.21 141.19 Q 200.31 140.23 199.83 138.92 Q 199.35 137.61 199.35 136.05 L 199.35 135.47 Q 199.35 133.67 199.89 132.25 Q 200.42 130.84 201.34 129.85 Q 202.25 128.87 203.41 128.36 Q 204.58 127.86 205.82 127.86 Q 207.41 127.86 208.56 128.41 Q 209.72 128.95 210.45 129.93 Q 211.19 130.91 211.55 132.23 Q 211.9 133.55 211.9 135.1 L 211.9 136.24 L 200.86 136.24 L 200.86 134.18 L 209.37 134.18 L 209.37 133.98 Q 209.32 133 208.97 132.07 Q 208.62 131.14 207.87 130.54 Q 207.12 129.94 205.82 129.94 Q 204.96 129.94 204.23 130.3 Q 203.51 130.66 202.99 131.37 Q 202.47 132.08 202.18 133.11 Q 201.9 134.13 201.9 135.47 L 201.9 136.05 Q 201.9 137.1 202.19 138.02 Q 202.48 138.95 203.05 139.64 Q 203.62 140.34 204.43 140.74 Q 205.25 141.13 206.28 141.13 Q 207.62 141.13 208.55 140.59 Q 209.48 140.04 210.18 139.12 L 211.71 140.34 Q 211.23 141.07 210.5 141.72 Q 209.76 142.38 208.68 142.79 Q 207.61 143.2 206.15 143.2 Z M 217.39 130.46 L 217.39 142.93 L 214.86 142.93 L 214.86 128.13 L 217.32 128.13 Z M 222.01 128.05 L 221.99 130.4 Q 221.68 130.33 221.4 130.31 Q 221.12 130.29 220.76 130.29 Q 219.89 130.29 219.22 130.57 Q 218.55 130.84 218.08 131.33 Q 217.62 131.82 217.35 132.5 Q 217.08 133.18 217 133.98 L 216.29 134.39 Q 216.29 133.05 216.56 131.88 Q 216.82 130.7 217.39 129.79 Q 217.95 128.88 218.81 128.37 Q 219.68 127.86 220.89 127.86 Q 221.16 127.86 221.51 127.92 Q 221.87 127.98 222.01 128.05 Z M 240.33 139.51 L 240.33 128.13 L 242.87 128.13 L 242.87 142.93 L 240.45 142.93 Z M 240.81 136.39 L 241.86 136.36 Q 241.86 137.84 241.55 139.09 Q 241.24 140.34 240.56 141.26 Q 239.88 142.17 238.77 142.69 Q 237.66 143.2 236.08 143.2 Q 235 143.2 234.1 142.88 Q 233.2 142.57 232.56 141.91 Q 231.92 141.26 231.57 140.2 Q 231.22 139.15 231.22 137.68 L 231.22 128.13 L 233.75 128.13 L 233.75 137.7 Q 233.75 138.7 233.98 139.35 Q 234.2 140 234.59 140.38 Q 234.98 140.75 235.47 140.9 Q 235.95 141.05 236.47 141.05 Q 238.09 141.05 239.03 140.43 Q 239.97 139.81 240.39 138.75 Q 240.81 137.69 240.81 136.39 Z M 249.24 131.29 L 249.24 142.93 L 246.71 142.93 L 246.71 128.13 L 249.1 128.13 Z M 248.64 134.97 L 247.58 134.93 Q 247.6 133.41 248.03 132.12 Q 248.47 130.83 249.26 129.87 Q 250.06 128.91 251.16 128.38 Q 252.26 127.86 253.6 127.86 Q 254.69 127.86 255.57 128.15 Q 256.44 128.45 257.06 129.09 Q 257.69 129.73 258.01 130.75 Q 258.34 131.77 258.34 133.23 L 258.34 142.93 L 255.8 142.93 L 255.8 133.2 Q 255.8 132.04 255.46 131.34 Q 255.12 130.63 254.46 130.31 Q 253.8 129.99 252.85 129.99 Q 251.9 129.99 251.13 130.39 Q 250.36 130.78 249.8 131.48 Q 249.25 132.18 248.94 133.07 Q 248.64 133.97 248.64 134.97 Z M 278.7 128.13 L 281 128.13 L 281 142.61 Q 281 144.57 280.21 145.95 Q 279.41 147.33 278 148.05 Q 276.58 148.76 274.74 148.76 Q 273.97 148.76 272.94 148.52 Q 271.91 148.28 270.92 147.72 Q 269.92 147.15 269.25 146.19 L 270.58 144.69 Q 271.51 145.81 272.53 146.25 Q 273.55 146.68 274.55 146.68 Q 275.75 146.68 276.62 146.23 Q 277.5 145.78 277.98 144.9 Q 278.47 144.02 278.47 142.73 L 278.47 131.39 Z M 268.52 135.69 L 268.52 135.41 Q 268.52 133.71 268.92 132.32 Q 269.32 130.93 270.08 129.94 Q 270.84 128.94 271.92 128.4 Q 273 127.86 274.35 127.86 Q 275.75 127.86 276.79 128.34 Q 277.84 128.83 278.57 129.75 Q 279.3 130.68 279.73 131.97 Q 280.15 133.27 280.32 134.91 L 280.32 136.17 Q 280.16 137.8 279.73 139.1 Q 279.3 140.4 278.57 141.31 Q 277.84 142.23 276.79 142.71 Q 275.74 143.2 274.33 143.2 Q 273 143.2 271.93 142.64 Q 270.85 142.08 270.09 141.07 Q 269.32 140.05 268.92 138.68 Q 268.52 137.31 268.52 135.69 Z M 271.05 135.41 L 271.05 135.69 Q 271.05 136.8 271.27 137.77 Q 271.5 138.74 271.97 139.48 Q 272.44 140.22 273.18 140.63 Q 273.92 141.05 274.94 141.05 Q 276.2 141.05 277.02 140.52 Q 277.84 139.99 278.33 139.11 Q 278.81 138.24 279.08 137.21 L 279.08 133.92 Q 278.93 133.16 278.63 132.46 Q 278.32 131.76 277.83 131.2 Q 277.35 130.65 276.64 130.32 Q 275.93 129.99 274.97 129.99 Q 273.93 129.99 273.19 130.42 Q 272.44 130.85 271.97 131.6 Q 271.5 132.34 271.27 133.32 Q 271.05 134.3 271.05 135.41 Z M 293.55 140.4 L 293.55 132.78 Q 293.55 131.91 293.2 131.26 Q 292.85 130.61 292.16 130.25 Q 291.46 129.9 290.43 129.9 Q 289.48 129.9 288.76 130.22 Q 288.04 130.55 287.64 131.09 Q 287.23 131.62 287.23 132.23 L 284.7 132.23 Q 284.7 131.44 285.12 130.66 Q 285.53 129.88 286.3 129.25 Q 287.07 128.61 288.16 128.23 Q 289.24 127.86 290.58 127.86 Q 292.2 127.86 293.43 128.41 Q 294.67 128.95 295.38 130.05 Q 296.08 131.15 296.08 132.81 L 296.08 139.7 Q 296.08 140.44 296.21 141.27 Q 296.34 142.1 296.6 142.71 L 296.6 142.93 L 293.96 142.93 Q 293.77 142.49 293.66 141.76 Q 293.55 141.02 293.55 140.4 Z M 293.99 133.96 L 294.02 135.73 L 291.46 135.73 Q 290.38 135.73 289.53 135.9 Q 288.68 136.08 288.11 136.42 Q 287.54 136.76 287.23 137.27 Q 286.93 137.78 286.93 138.47 Q 286.93 139.17 287.25 139.74 Q 287.56 140.31 288.2 140.65 Q 288.83 140.98 289.76 140.98 Q 290.93 140.98 291.81 140.49 Q 292.7 140 293.23 139.29 Q 293.76 138.58 293.8 137.91 L 294.88 139.12 Q 294.78 139.7 294.36 140.4 Q 293.93 141.09 293.23 141.73 Q 292.53 142.36 291.56 142.78 Q 290.6 143.2 289.39 143.2 Q 287.89 143.2 286.76 142.61 Q 285.63 142.02 285.01 141.03 Q 284.39 140.04 284.39 138.81 Q 284.39 137.62 284.86 136.71 Q 285.32 135.8 286.2 135.19 Q 287.07 134.59 288.3 134.27 Q 289.53 133.96 291.05 133.96 Z M 306.25 128.13 L 306.25 130.07 L 298.25 130.07 L 298.25 128.13 Z M 300.96 124.54 L 303.49 124.54 L 303.49 139.26 Q 303.49 140.01 303.72 140.4 Q 303.95 140.78 304.32 140.9 Q 304.69 141.02 305.11 141.02 Q 305.43 141.02 305.78 140.96 Q 306.13 140.9 306.3 140.86 L 306.32 142.93 Q 306.02 143.02 305.53 143.11 Q 305.05 143.2 304.36 143.2 Q 303.43 143.2 302.65 142.83 Q 301.87 142.46 301.42 141.59 Q 300.96 140.72 300.96 139.25 Z M 315.36 143.2 Q 313.81 143.2 312.56 142.67 Q 311.31 142.15 310.41 141.19 Q 309.52 140.23 309.04 138.92 Q 308.56 137.61 308.56 136.05 L 308.56 135.47 Q 308.56 133.67 309.09 132.25 Q 309.63 130.84 310.54 129.85 Q 311.46 128.87 312.62 128.36 Q 313.78 127.86 315.03 127.86 Q 316.61 127.86 317.77 128.41 Q 318.92 128.95 319.66 129.93 Q 320.4 130.91 320.76 132.23 Q 321.11 133.55 321.11 135.1 L 321.11 136.24 L 310.07 136.24 L 310.07 134.18 L 318.58 134.18 L 318.58 133.98 Q 318.53 133 318.18 132.07 Q 317.83 131.14 317.08 130.54 Q 316.33 129.94 315.03 129.94 Q 314.17 129.94 313.44 130.3 Q 312.72 130.66 312.2 131.37 Q 311.68 132.08 311.39 133.11 Q 311.1 134.13 311.1 135.47 L 311.1 136.05 Q 311.1 137.1 311.4 138.02 Q 311.69 138.95 312.26 139.64 Q 312.83 140.34 313.64 140.74 Q 314.45 141.13 315.49 141.13 Q 316.83 141.13 317.76 140.59 Q 318.69 140.04 319.39 139.12 L 320.92 140.34 Q 320.44 141.07 319.7 141.72 Q 318.97 142.38 317.89 142.79 Q 316.82 143.2 315.36 143.2 Z M 332.76 140.4 L 332.76 132.78 Q 332.76 131.91 332.41 131.26 Q 332.07 130.61 331.37 130.25 Q 330.67 129.9 329.65 129.9 Q 328.69 129.9 327.97 130.22 Q 327.25 130.55 326.85 131.09 Q 326.45 131.62 326.45 132.23 L 323.92 132.23 Q 323.92 131.44 324.33 130.66 Q 324.74 129.88 325.51 129.25 Q 326.28 128.61 327.37 128.23 Q 328.46 127.86 329.8 127.86 Q 331.41 127.86 332.65 128.41 Q 333.88 128.95 334.59 130.05 Q 335.29 131.15 335.29 132.81 L 335.29 139.7 Q 335.29 140.44 335.42 141.27 Q 335.55 142.1 335.81 142.71 L 335.81 142.93 L 333.17 142.93 Q 332.98 142.49 332.87 141.76 Q 332.76 141.02 332.76 140.4 Z M 333.2 133.96 L 333.23 135.73 L 330.67 135.73 Q 329.59 135.73 328.74 135.9 Q 327.9 136.08 327.32 136.42 Q 326.75 136.76 326.45 137.27 Q 326.15 137.78 326.15 138.47 Q 326.15 139.17 326.46 139.74 Q 326.77 140.31 327.41 140.65 Q 328.05 140.98 328.98 140.98 Q 330.14 140.98 331.03 140.49 Q 331.91 140 332.44 139.29 Q 332.97 138.58 333.01 137.91 L 334.09 139.12 Q 333.99 139.7 333.57 140.4 Q 333.15 141.09 332.44 141.73 Q 331.74 142.36 330.77 142.78 Q 329.81 143.2 328.61 143.2 Q 327.1 143.2 325.97 142.61 Q 324.85 142.02 324.22 141.03 Q 323.6 140.04 323.6 138.81 Q 323.6 137.62 324.07 136.71 Q 324.53 135.8 325.41 135.19 Q 326.28 134.59 327.51 134.27 Q 328.74 133.96 330.26 133.96 Z M 348.32 139.51 L 348.32 128.13 L 350.86 128.13 L 350.86 142.93 L 348.44 142.93 Z M 348.8 136.39 L 349.85 136.36 Q 349.85 137.84 349.54 139.09 Q 349.23 140.34 348.55 141.26 Q 347.87 142.17 346.76 142.69 Q 345.65 143.2 344.07 143.2 Q 342.99 143.2 342.09 142.88 Q 341.2 142.57 340.55 141.91 Q 339.91 141.26 339.56 140.2 Q 339.21 139.15 339.21 137.68 L 339.21 128.13 L 341.74 128.13 L 341.74 137.7 Q 341.74 138.7 341.97 139.35 Q 342.19 140 342.58 140.38 Q 342.97 140.75 343.46 140.9 Q 343.94 141.05 344.46 141.05 Q 346.08 141.05 347.02 140.43 Q 347.96 139.81 348.38 138.75 Q 348.8 137.69 348.8 136.39 Z" transform="matrix(0.31642, 0, 0, 0.298988, 316.685364, 93.371605)" style="fill: rgb(255, 255, 255); text-wrap-mode: nowrap;"/><g transform="matrix(1, 0, 0, 1, -10, 0)" id="object-13"><rect style="fill: rgb(216, 216, 216); stroke-linejoin: round;" x="157.235" y="207.387" width="47.562" height="4.522" rx="2" ry="2"/><rect style="fill: rgb(216, 216, 216); stroke-linejoin: round;" x="157.445" y="217.135" width="60.976" height="3.372" rx="1.7" ry="1.7"/><rect style="fill: rgb(216, 216, 216); stroke-linejoin: round;" x="111.27" y="204.254" width="38.095" height="31.044" rx="3" ry="3"/><rect style="fill: rgb(216, 216, 216); stroke-linejoin: round;" x="157.446" y="224.534" width="60.976" height="3.372" rx="1.7" ry="1.7"/></g><g transform="matrix(1, 0, 0, 1, 109.131767, -0.156727)" id="object-14"><rect style="fill: rgb(216, 216, 216); stroke-linejoin: round;" x="157.235" y="207.387" width="47.562" height="4.522" rx="2" ry="2"/><rect style="fill: rgb(216, 216, 216); stroke-linejoin: round;" x="157.445" y="217.135" width="60.976" height="3.372" rx="1.7" ry="1.7"/><rect style="fill: rgb(216, 216, 216); stroke-linejoin: round;" x="111.27" y="204.254" width="38.095" height="31.044" rx="3" ry="3"/><rect style="fill: rgb(216, 216, 216); stroke-linejoin: round;" x="157.446" y="224.534" width="60.976" height="3.372" rx="1.7" ry="1.7"/></g><g transform="matrix(1, 0, 0, 1, 229.157059, -0.013817)" id="object-15"><rect style="fill: rgb(216, 216, 216); stroke-linejoin: round;" x="157.235" y="207.387" width="47.562" height="4.522" rx="2" ry="2"/><rect style="fill: rgb(216, 216, 216); stroke-linejoin: round;" x="157.445" y="217.135" width="60.976" height="3.372" rx="1.7" ry="1.7"/><rect style="fill: rgb(216, 216, 216); stroke-linejoin: round;" x="111.27" y="204.254" width="38.095" height="31.044" rx="3" ry="3"/><rect style="fill: rgb(216, 216, 216); stroke-linejoin: round;" x="157.446" y="224.534" width="60.976" height="3.372" rx="1.7" ry="1.7"/></g><g transform="matrix(1, 0, 0, 1, -10.038685, 43.825359)" id="object-16"><rect style="fill: rgb(216, 216, 216); stroke-linejoin: round;" x="157.235" y="207.387" width="47.562" height="4.522" rx="2" ry="2"/><rect style="fill: rgb(216, 216, 216); stroke-linejoin: round;" x="157.445" y="217.135" width="60.976" height="3.372" rx="1.7" ry="1.7"/><rect style="fill: rgb(216, 216, 216); stroke-linejoin: round;" x="111.27" y="204.254" width="38.095" height="31.044" rx="3" ry="3"/><rect style="fill: rgb(216, 216, 216); stroke-linejoin: round;" x="157.446" y="224.534" width="60.976" height="3.372" rx="1.7" ry="1.7"/></g><g transform="matrix(1, 0, 0, 1, 109.093086, 43.668633)" id="object-17"><rect style="fill: rgb(216, 216, 216); stroke-linejoin: round;" x="157.235" y="207.387" width="47.562" height="4.522" rx="2" ry="2"/><rect style="fill: rgb(216, 216, 216); stroke-linejoin: round;" x="157.445" y="217.135" width="60.976" height="3.372" rx="1.7" ry="1.7"/><rect style="fill: rgb(216, 216, 216); stroke-linejoin: round;" x="111.27" y="204.254" width="38.095" height="31.044" rx="3" ry="3"/><rect style="fill: rgb(216, 216, 216); stroke-linejoin: round;" x="157.446" y="224.534" width="60.976" height="3.372" rx="1.7" ry="1.7"/></g><rect style="fill: rgb(216, 216, 216); stroke-linejoin: round;" x="54.177" y="149.245" width="14" height="14.013" rx="3" ry="3" id="object-18"/><rect style="fill: rgb(216, 216, 216); stroke-linejoin: round;" x="54.127" y="171.224" width="14" height="14.013" rx="3" ry="3" id="object-19"/><rect style="fill: rgb(216, 216, 216); stroke-linejoin: round;" x="54.031" y="212.735" width="14" height="14.013" rx="3" ry="3" id="object-20"/><rect style="fill: rgb(216, 216, 216); stroke-linejoin: round;" x="54.041" y="233.174" width="14" height="14.013" rx="3" ry="3" id="object-21"/><rect style="stroke-linejoin: round;" x="53.957" y="191.574" width="14" height="14.013" rx="3" ry="3" id="object-22"/></g></g></svg>