<?xml version="1.0" encoding="utf-8"?>
<svg xmlns="http://www.w3.org/2000/svg" viewBox="100 100 300.0001 300" width="300px" height="300px" preserveAspectRatio="none"><g id="object-0"><ellipse style="fill: rgb(255, 111, 97);" cx="250" cy="250" rx="150" ry="150"/><g id="group-1" transform="matrix(0.707564, 0, 0, 0.707564, 65.832397, 4.180574)"><rect x="48.289" y="226.118" width="423.99" height="242.597" style="fill-opacity: 0; paint-order: stroke; fill: none;"/><path d="M 160.82 180.32 C 160.55 182.96 160.42 185.85 160.42 188.66 C 160.42 191.92 160.6 195.08 160.95 197.65 C 161.14 198.43 161.82 198.76 162.47 198.76 C 163.17 198.76 163.84 198.38 163.84 197.74 C 163.84 196.75 163.7 195.35 163.7 194.22 C 163.7 194.08 163.7 193.95 163.7 193.82 C 165.05 193.18 169.76 189.81 169.76 183.86 C 169.76 181.79 168.98 180.12 167.34 179.77 C 167.13 179.72 166.92 179.7 166.72 179.7 C 165.52 179.7 164.47 180.42 163.94 181.38 C 163.93 180.98 163.92 180.46 163.92 180.06 C 163.92 179.47 163.17 179.08 162.41 179.08 C 161.68 179.08 160.94 179.44 160.82 180.32 Z M 166.65 181.17 C 167.02 181.28 167.18 181.82 167.18 182.6 C 167.18 185.28 165.33 190.81 163.56 191.97 C 163.54 191.67 163.53 191.18 163.53 190.58 C 163.53 188.95 163.66 186.48 164.28 184.49 C 164.93 182.38 166.05 181.16 166.58 181.16 C 166.6 181.16 166.63 181.16 166.65 181.17 Z M 172.98 188.21 C 173.08 187.42 173.55 186.9 173.78 186.9 C 174.2 186.9 174.45 187.67 174.51 189.49 C 174.53 189.88 174.54 190.25 174.54 190.47 C 174.54 190.61 174.54 190.7 174.52 190.7 C 174.44 190.7 174.35 190.69 174.24 190.69 C 173.14 190.69 170.87 191.04 170.87 193.09 C 170.87 193.17 170.87 193.24 170.88 193.32 C 170.99 194.75 172.42 194.93 173.58 195.02 L 174.48 195.1 L 174.49 196 C 174.49 196.25 174.49 196.44 174.5 196.59 C 174.55 197.24 175.54 197.51 176.26 197.53 C 177.36 197.49 177.59 197.27 177.63 196.52 L 177.71 194.97 C 177.76 193.98 177.78 193.15 177.78 192.44 C 177.78 191.03 177.7 190.09 177.64 189.37 C 177.44 187.19 176.67 185.42 174.24 185.42 C 174.1 185.42 173.96 185.42 173.82 185.43 C 172.63 185.52 171.2 186.5 171.2 188 C 171.2 188.51 171.61 188.73 172.13 188.73 C 172.56 188.73 172.98 188.55 172.98 188.21 Z M 174.21 191.92 C 174.32 191.92 174.4 191.93 174.44 191.96 C 174.48 191.99 174.49 192.1 174.49 192.34 C 174.49 192.48 174.49 192.67 174.47 192.92 L 174.43 193.81 C 174.32 193.81 174.19 193.81 174.07 193.81 C 173.48 193.81 172.86 193.73 172.86 193.14 C 172.86 192.75 173.19 191.94 174.21 191.92 Z M 180.37 180.09 L 180.13 184.74 C 179.25 184.74 178.96 184.76 178.7 184.76 C 178.3 184.77 178.06 185.18 178.06 185.6 C 178.06 186.03 178.32 186.48 178.91 186.48 L 180 186.49 C 180 186.69 180.01 186.89 180.01 187.1 C 180.01 188.01 179.97 189.02 179.97 190.04 C 179.97 193.56 180.37 197.16 183.9 197.23 C 183.92 197.23 183.93 197.23 183.95 197.23 C 184.98 197.23 186.48 196.61 186.77 193.34 C 186.82 192.85 186.78 192.68 186.73 192.52 C 186.61 192.16 186.27 192.02 185.93 192.02 C 185.57 192.02 185.22 192.19 185.19 192.44 L 185.12 192.98 C 185.07 193.57 184.84 195.15 184.02 195.15 C 183.51 195.15 183.37 193.99 183.29 193.42 C 183.23 193.04 183.21 192.28 183.21 191.37 C 183.21 189.7 183.29 187.54 183.41 186.43 L 184.22 186.45 L 185.02 186.48 C 185.35 186.48 185.54 186.05 185.54 185.62 C 185.54 185.17 185.33 184.72 184.84 184.72 C 184.64 184.72 183.69 184.7 183.51 184.68 C 183.56 183.64 183.69 181.47 183.69 180.44 C 183.69 179.55 182.76 179.09 181.88 179.09 C 181.14 179.09 180.44 179.42 180.37 180.09 Z M 188.82 180.09 L 188.59 184.74 C 187.7 184.74 187.41 184.76 187.15 184.76 C 186.75 184.77 186.52 185.18 186.52 185.6 C 186.52 186.03 186.78 186.48 187.37 186.48 L 188.46 186.49 C 188.46 186.69 188.46 186.89 188.46 187.1 C 188.46 188.01 188.43 189.02 188.43 190.04 C 188.43 193.56 188.82 197.16 192.36 197.23 C 192.37 197.23 192.39 197.23 192.4 197.23 C 193.44 197.23 194.93 196.61 195.23 193.34 C 195.27 192.85 195.24 192.68 195.19 192.52 C 195.07 192.16 194.72 192.02 194.39 192.02 C 194.03 192.02 193.68 192.19 193.65 192.44 L 193.58 192.98 C 193.52 193.57 193.3 195.15 192.48 195.15 C 191.97 195.15 191.83 193.99 191.74 193.42 C 191.69 193.04 191.67 192.28 191.67 191.37 C 191.67 189.7 191.75 187.54 191.86 186.43 L 192.67 186.45 L 193.48 186.48 C 193.8 186.48 194 186.05 194 185.62 C 194 185.17 193.79 184.72 193.3 184.72 C 193.1 184.72 192.15 184.7 191.97 184.68 C 192.02 183.64 192.15 181.47 192.15 180.44 C 192.15 179.55 191.21 179.09 190.34 179.09 C 189.6 179.09 188.89 179.42 188.82 180.09 Z M 200.94 184.87 C 200.63 185.13 200.57 185 200.5 186.92 C 200.42 189.31 200.09 190.45 199.41 191.17 C 199.11 191.48 198.96 191.42 198.87 191.35 C 198.64 191.18 198.75 188.66 198.69 187.5 C 198.68 187.03 198.3 186.68 197.65 186.55 C 197.35 186.49 197.08 186.46 196.85 186.46 C 195.97 186.46 195.61 186.88 195.56 187.55 C 195.54 187.84 195.53 188.14 195.53 188.44 C 195.53 190.85 196.19 193.2 198.29 193.34 C 198.34 193.35 198.38 193.35 198.43 193.35 C 199.28 193.35 200.15 192.85 200.78 191.98 C 200.8 192.12 200.81 192.38 200.81 192.72 C 200.81 194.58 200.52 198.81 199.54 198.81 C 199.53 198.81 199.52 198.81 199.51 198.81 C 199.29 198.79 199.02 198.22 198.99 197.52 C 198.98 197.35 198.94 197.07 198.89 196.89 C 198.81 196.57 198.38 196.4 197.96 196.4 C 197.53 196.4 197.11 196.58 197.09 196.93 C 197.08 197.09 197.07 197.25 197.07 197.41 C 197.07 198.6 197.54 199.74 199.05 200.08 C 199.31 200.12 199.56 200.14 199.8 200.14 C 203.64 200.14 203.75 194.83 203.87 192.01 C 203.88 191.93 203.88 191.79 203.88 191.62 C 203.88 191.07 203.86 190.11 203.83 189.17 C 203.77 187 203.67 186.08 203.5 185.54 C 203.34 184.94 202.57 184.65 201.86 184.65 C 201.51 184.65 201.18 184.73 200.94 184.87 Z M 205.4 179.84 C 205.13 180.94 205 184.34 205 187.73 C 205 191.06 205.12 194.4 205.35 195.59 C 205.54 196.3 206.12 196.6 206.71 196.6 C 207.46 196.6 208.23 196.11 208.23 195.39 C 208.22 194.18 208.21 192.96 208.21 191.73 C 208.21 187.94 208.28 184.1 208.45 180.36 C 208.45 179.53 207.56 179.11 206.73 179.11 C 206.11 179.11 205.53 179.35 205.4 179.84 Z M 214.97 184.87 C 214.66 185.13 214.6 185 214.53 186.92 C 214.44 189.31 214.12 190.45 213.44 191.17 C 213.13 191.48 212.99 191.42 212.9 191.35 C 212.66 191.18 212.78 188.66 212.72 187.5 C 212.71 187.03 212.33 186.68 211.68 186.55 C 211.37 186.49 211.11 186.46 210.88 186.46 C 210 186.46 209.63 186.88 209.59 187.55 C 209.57 187.84 209.56 188.14 209.56 188.44 C 209.56 190.85 210.22 193.2 212.32 193.34 C 212.36 193.35 212.41 193.35 212.46 193.35 C 213.31 193.35 214.17 192.85 214.81 191.98 C 214.82 192.12 214.83 192.38 214.83 192.72 C 214.83 194.58 214.55 198.81 213.57 198.81 C 213.56 198.81 213.55 198.81 213.54 198.81 C 213.31 198.79 213.05 198.22 213.02 197.52 C 213.01 197.35 212.96 197.07 212.92 196.89 C 212.83 196.57 212.4 196.4 211.98 196.4 C 211.56 196.4 211.14 196.58 211.12 196.93 C 211.1 197.09 211.1 197.25 211.1 197.41 C 211.1 198.6 211.57 199.74 213.08 200.08 C 213.34 200.12 213.59 200.14 213.82 200.14 C 217.66 200.14 217.78 194.83 217.9 192.01 C 217.9 191.93 217.91 191.79 217.91 191.62 C 217.91 191.07 217.89 190.11 217.86 189.17 C 217.79 187 217.7 186.08 217.53 185.54 C 217.37 184.94 216.6 184.65 215.89 184.65 C 215.54 184.65 215.2 184.73 214.97 184.87 Z" transform="matrix(5.086364, 0, 0, 5.765299, -704.580933, -737.575684)" style="fill: rgb(255, 255, 255); text-wrap-mode: nowrap;"/></g></g></svg>